# xmcd
#
# Track frame offsets:
#  150
#  13307
#  26685
#  37467
#  49065
#  60265
#  71242
#  82097
#  96947
#  108140
#  120837
#  133600
#  145017
#  155430
#  165857
#
# Disc length: 2363 seconds
#
# Revision: 0
# Processed by: cddbd v1.5.2PL0 Copyright (c) Steve Scherf et al.
# Submitted via: Collectorz.com Music Collector 6.9
#
DISCID=c509390f
DTITLE=Various Artist - This Country Feeling CD 2
DYEAR=1900
DGENRE=Country
TTITLE0=Lynn Anderson - Four in the Morning
TTITLE1=Leroy van Dyke - Rose Garden
TTITLE2=Guy Mitchell - Walk on By
TTITLE3=Don Gibson - Heartaches By the Number
TTITLE4=Hank Locklin - Oh Lonesome Me
TTITLE5=Ferlin Husky - Send Me the Pillow You Dream on
TTITLE6=Dave Dudley - Wings of a Dove
TTITLE7=Stonewall Jackson - Sixteen Tons
TTITLE8=Roy Drusky - Waterloo
TTITLE9=Frankie Laine - Kansas City
TTITLE10=Frankie Laine - High Noon
TTITLE11=The Stanley Brothers - Orange Blossom Special
TTITLE12=George Jones - Hey Good Lookin'
TTITLE13=Willis Brothers - Cool Water
TTITLE14=Hank Williams Jr and The Mike Curb Congregation - North To Alaska
EXTD=
EXTT0=
EXTT1=
EXTT2=
EXTT3=
EXTT4=
EXTT5=
EXTT6=
EXTT7=
EXTT8=
EXTT9=
EXTT10=
EXTT11=
EXTT12=
EXTT13=
EXTT14=
PLAYORDER=
